<svg width="284" height="294" viewBox="0 0 284 294" fill="none" xmlns="http://www.w3.org/2000/svg">
<path d="M107.802 280.259C92.6549 285.626 77.3612 288.105 61.0481 285.006C42.8654 281.55 27.0944 265.99 18.1832 250.472C14.8722 244.708 12.2363 238.268 12.5807 231.631C13.3822 216.299 27.8665 214.586 40.1614 217.066C47.0921 218.46 53.4559 221.635 59.7475 224.779C70.193 230.002 82.4458 232.571 91.8105 239.811C94.9529 242.247 97.3128 245.175 100.964 246.947C106.644 249.707 113.128 251.01 118.962 253.521C123.943 255.676 129.511 259.221 129.518 264.646C129.519 270.209 123.714 273.755 118.614 275.97C115.004 277.548 111.41 278.987 107.802 280.259Z" fill="url(#paint0_linear)"/>
<path d="M52.0501 82.4966C76.8631 45.9295 128.172 31.2471 169.761 44.9956C189.816 51.6286 206.623 65.4404 222.125 79.7783C235.789 92.4152 249.045 106.045 258.377 122.291C264.748 133.38 269.309 146.672 272.529 159.081C277.344 177.662 272.971 201.603 248.952 199.849C243.317 199.438 238.442 197.412 233.171 195.639C228.908 194.202 224.73 195.064 220.304 194.362C209.162 192.598 198.429 188.496 188.28 183.691C167.596 173.891 148.697 160.576 127.425 151.988C109.993 144.959 91.3767 141.33 72.5808 141.297C64.6512 141.284 56.3135 141.839 49.2203 138.293C31.7374 129.546 39.5993 105.959 46.1286 92.6913C47.8584 89.157 49.8372 85.7502 52.0501 82.4966Z" fill="url(#paint1_linear)"/>
<path d="M246.597 88.016C250.682 91.7159 266.732 101.816 267.041 89.9634C267.114 87.0106 265.775 84.1435 263.952 81.981C261.867 79.4989 259.502 78.1969 257.874 75.3052C255.881 71.8136 253.613 68.5321 251.099 65.503C245.959 59.1984 239.958 53.3731 232.676 50.7777C227.569 48.9594 218.922 49.4167 216.496 55.9621C212.962 65.4905 228.074 67.2364 232.683 70.7089C237.057 73.9957 239.534 79.6433 242.999 84.1317C244.094 85.547 245.298 86.8473 246.597 88.016Z" fill="url(#paint2_linear)"/>
<path d="M171.059 76.4262C179.712 81.5205 186.202 89.1458 194.091 95.287C207.225 105.51 225.228 107.601 240.29 114.711C255.648 121.964 267.245 133.237 272.488 149.484C279.262 170.456 279.906 195.396 274.151 216.956C267.813 240.688 252.929 256.452 231.168 266.965C209.419 277.472 185.326 282.375 161.296 283.387C158.977 283.486 156.662 283.54 154.338 283.555C102.135 283.858 32.6502 265.483 14.8773 209.405C14.7144 208.892 14.5583 208.38 14.4017 207.86C12.5704 201.612 11.4936 195.168 11.1944 188.664C10.0765 165.607 14.1118 140.158 22.1954 118.544C27.6323 103.992 39.3397 91.6878 51.6763 82.9209C69.009 70.6044 90.1575 67.4611 111.206 65.9834C126.793 64.8898 144.323 64.4902 159.063 70.4522C163.205 72.141 167.215 74.1379 171.059 76.4262Z" fill="url(#paint3_linear)"/>
<path d="M70.5235 251.914H236.933C236.933 251.914 242.759 156.234 221.559 142.233C200.361 128.235 101.223 131.158 79.25 143.115C57.2774 155.074 70.5235 251.914 70.5235 251.914Z" fill="#FED133"/>
<path d="M98.2307 122.074C97.9907 122.074 97.7478 121.996 97.5454 121.828C97.0886 121.455 86.4189 112.474 92.254 94.3732C94.2954 88.0436 96.2963 83.5618 98.0572 79.6033C101.235 72.4815 103.531 67.3317 103.967 56.3295C103.991 55.731 104.589 55.2828 105.092 55.2857C105.691 55.3117 106.156 55.8148 106.133 56.4134C105.682 67.8349 103.19 73.4184 100.038 80.4881C98.2972 84.3946 96.3223 88.8215 94.3185 95.0382C88.9547 111.676 98.5112 119.813 98.9218 120.151C99.3815 120.533 99.448 121.215 99.0692 121.675C98.8553 121.938 98.543 122.074 98.2307 122.074Z" fill="#000C3E"/>
<path d="M157.307 14.1208C157.026 21.6329 150.708 27.4911 143.196 27.2107C135.687 26.9302 129.826 20.6122 130.106 13.103C130.39 5.59083 136.705 -0.270265 144.217 0.0102123C151.726 0.293581 157.587 6.60865 157.307 14.1208Z" fill="#000C3E"/>
<path d="M97.016 116.788C97.016 116.788 101.009 125.023 117.312 127.918C133.617 130.815 146.412 124.916 158.998 129.482C171.585 134.045 189.77 128.097 193.376 122.808C196.979 117.52 196.224 58.9521 186.3 49.1297C176.374 39.3101 124.373 31.1126 113.104 42.6035C101.836 54.0973 89.8682 110.193 97.016 116.788Z" fill="#000C3E"/>
<path d="M191.151 70.5802C190.222 95.3315 169.406 114.647 144.655 113.719C119.904 112.79 100.588 91.9745 101.517 67.2202C102.445 42.4689 123.261 23.1565 148.012 24.0846C172.763 25.0099 192.079 45.8288 191.151 70.5802Z" fill="#000C3E"/>
<path d="M164.73 108.08C164.73 108.08 167.642 143.006 164.73 146.887C161.819 150.767 143.385 147.858 138.536 146.887C133.684 145.918 131.744 108.08 134.653 108.08C137.565 108.08 164.172 100.293 164.73 108.08Z" fill="#FFCEB0"/>
<path d="M109.712 67.2197C109.712 67.2197 111.557 121.658 148.36 124.009C185.166 126.357 185.129 49.6566 171.811 42.3613C158.489 35.066 102.909 36.4337 109.712 67.2197Z" fill="#FFCEB0"/>
<path d="M147.504 78.8727C147.504 78.8727 154.533 95.6291 152.723 96.7394C150.916 97.8497 145.622 97.6502 144.196 96.4184C142.771 95.1867 144.63 76.999 147.504 78.8727Z" fill="#FFA974"/>
<path d="M136.482 84.4809C136.389 86.3893 134.767 87.8582 132.859 87.7656C130.953 87.6731 129.481 86.051 129.574 84.1426C129.666 82.2371 131.289 80.7653 133.197 80.8578C135.103 80.9503 136.574 82.5725 136.482 84.4809Z" fill="#41294A"/>
<path d="M166.172 82.8517C166.08 84.7601 164.458 86.229 162.549 86.1365C160.644 86.044 159.172 84.4218 159.265 82.5134C159.357 80.6079 160.979 79.1361 162.888 79.2287C164.793 79.3212 166.265 80.9433 166.172 82.8517Z" fill="#41294A"/>
<path d="M138.691 38.1877C138.691 38.1877 125.494 44.5693 122.984 56.5488C120.472 68.5313 121.773 99.2073 107.789 97.7992C107.789 97.7992 80.7161 37.089 138.691 38.1877Z" fill="#000C3E"/>
<path d="M145.648 38.4481C144.451 39.3069 159.255 39.2693 167.719 49.5313C176.185 59.7904 178.194 85.4352 179.501 85.9094C180.811 86.3865 186.039 54.1346 176.757 44.4451C167.479 34.7557 152.46 33.5702 145.648 38.4481Z" fill="#000C3E"/>
<path d="M135.165 119.044C135.165 119.044 149.484 127.187 164.352 119.576C164.352 119.576 165.509 128.716 164.352 130.824C163.195 132.932 139.647 134.439 135.012 124.049C135.012 124.049 133.826 118.593 135.165 119.044Z" fill="#FFA974"/>
<path d="M176.332 88.0964C176.332 88.0964 179.856 74.4687 186.001 79.3177C192.148 84.1697 186.588 98.4104 180.513 99.7029C174.438 100.995 172.975 95.1227 176.332 88.0964Z" fill="#FFCEB0"/>
<path d="M118.282 85.9211C118.282 85.9211 115.787 72.0678 109.296 76.4456C102.804 80.8205 107.283 95.4399 113.245 97.1835C119.208 98.9242 121.102 93.1788 118.282 85.9211Z" fill="#FFCEB0"/>
<path d="M161.336 70.5362C161.336 70.5362 167.923 67.2573 171.815 72.2856C175.239 76.7038 167.275 72.9998 164.297 73.4914C161.322 73.9829 157.415 73.6446 161.336 70.5362Z" fill="#41294A"/>
<path d="M135.45 71.1713C135.45 71.1713 128.852 67.9155 124.977 72.9583C121.571 77.3881 129.52 73.6551 132.498 74.1351C135.476 74.618 139.383 74.2652 135.45 71.1713Z" fill="#41294A"/>
<path d="M132.74 76.7276C127.052 76.7276 122.432 81.1835 122.218 86.874C122.114 89.6845 123.108 92.3707 125.025 94.4324C126.94 96.4969 129.542 97.6911 132.355 97.7952L132.76 97.8039C138.448 97.8039 143.068 93.3481 143.28 87.6604C143.387 84.8499 142.389 82.1608 140.475 80.0991C138.561 78.0346 135.958 76.8404 133.145 76.7363L132.74 76.7276ZM132.76 99.2496L132.3 99.241C129.102 99.1224 126.142 97.7634 123.964 95.4184C121.787 93.0705 120.653 90.017 120.772 86.8161C121.015 80.3507 126.272 75.2819 132.74 75.2819L133.2 75.2906C136.398 75.4091 139.359 76.7681 141.536 79.1131C143.71 81.461 144.847 84.5145 144.725 87.7183C144.485 94.1837 139.229 99.2496 132.76 99.2496Z" fill="#FFFCF6"/>
<path d="M162.64 75.0473C156.955 75.0473 152.335 79.5032 152.121 85.1937C152.014 88.0042 153.011 90.6904 154.926 92.7521C156.84 94.8166 159.445 96.0108 162.256 96.1149L162.66 96.1236C168.351 96.1236 172.969 91.6678 173.183 85.9773C173.29 83.1667 172.292 80.4805 170.378 78.4188C168.464 76.3543 165.858 75.1601 163.045 75.056L162.64 75.0473ZM162.66 97.5693L162.204 97.5607C159.003 97.4421 156.042 96.0831 153.864 93.7381C151.687 91.3902 150.554 88.3367 150.675 85.1358C150.918 78.6704 156.175 73.6016 162.64 73.6016L163.1 73.6103C166.298 73.7288 169.259 75.0878 171.436 77.4328C173.613 79.7807 174.747 82.8342 174.628 86.0351C174.385 92.5005 169.129 97.5693 162.66 97.5693Z" fill="#FFFCF6"/>
<path d="M121.846 85.1647C121.757 85.1647 121.667 85.1473 121.58 85.1126L117.197 83.3835C116.827 83.236 116.644 82.8168 116.789 82.4467C116.936 82.0736 117.359 81.8944 117.729 82.0389L122.112 83.771C122.482 83.9155 122.665 84.3377 122.517 84.7078C122.407 84.9912 122.135 85.1647 121.846 85.1647Z" fill="#FFFCF6"/>
<path d="M173.491 83.2523C173.178 83.2523 172.886 83.047 172.797 82.7261C172.687 82.3473 172.909 81.9454 173.294 81.8355L179.381 80.0919C179.751 79.9733 180.164 80.2018 180.274 80.5892C180.384 80.9709 180.161 81.3728 179.777 81.4827L173.687 83.2234C173.624 83.2436 173.554 83.2523 173.491 83.2523Z" fill="#FFFCF6"/>
<path d="M143.159 35.3293C143.159 35.3293 144.819 64.8372 152.953 67.5147C161.087 70.1952 181.084 69.4607 182.05 66.2338C183.016 63.004 166.543 37.0324 154.723 32.8686C133.993 25.5647 116.101 59.2681 118.466 67.3875C120.831 75.5098 138.643 68.4024 142.442 67.3586C146.245 66.3148 142.399 41.1615 143.159 35.3293Z" fill="#000C3E"/>
<g opacity="0.210007">
<g opacity="0.210007">
<path opacity="0.210007" d="M122.906 97.0314C122.906 97.0314 141.744 86.7492 149.866 88.4436C157.985 90.138 172.296 90.7106 172.874 93.6512C173.455 96.5919 154.689 94.8281 148.895 95.2531C143.097 95.6782 120.74 101.808 122.906 97.0314Z" fill="#DB5C5D"/>
</g>
</g>
<path d="M133.494 90.4985C133.057 90.4985 132.644 90.2325 132.479 89.7988C132.268 89.2378 132.548 88.6133 133.109 88.3993C134.792 87.7632 135.165 87.2456 135.168 87.2427C135.376 86.6817 135.969 86.4533 136.53 86.6673C137.094 86.8726 137.348 87.5608 137.14 88.1246C136.969 88.5872 136.319 89.501 133.878 90.4291C133.751 90.4754 133.621 90.4985 133.494 90.4985Z" fill="#DB5C5D"/>
<path d="M161.96 89.7166C161.321 89.7166 160.315 89.5055 158.776 88.7103C158.244 88.4385 158.036 87.7821 158.311 87.2501C158.585 86.7209 159.239 86.5099 159.771 86.7846C161.379 87.6144 162.012 87.5479 162.009 87.5421C162.567 87.3339 163.128 87.6144 163.348 88.1725C163.567 88.7277 163.226 89.3811 162.671 89.6009C162.515 89.6616 162.287 89.7166 161.96 89.7166Z" fill="#DB5C5D"/>
<path d="M144.008 87.7764C143.635 87.7764 143.317 87.4872 143.288 87.1113C143.259 86.7123 143.554 86.3653 143.953 86.3335L151.37 85.7552C151.78 85.6916 152.119 86.0212 152.148 86.4174C152.179 86.8164 151.882 87.1634 151.483 87.1952L144.066 87.7735C144.046 87.7764 144.028 87.7764 144.008 87.7764Z" fill="#FFFCF6"/>
<path d="M135.202 27.2303C135.035 27.2303 134.864 27.1899 134.708 27.1089C130.726 25.0559 128.355 22.1933 127.656 18.6021C126.117 10.7198 133.28 2.27081 133.583 1.91515C133.976 1.46119 134.662 1.40625 135.113 1.79949C135.567 2.18985 135.622 2.87224 135.231 3.32621C135.162 3.40717 128.445 11.3444 129.784 18.1915C130.353 21.0974 132.343 23.4482 135.7 25.1832C136.232 25.4578 136.443 26.1113 136.165 26.6434C135.974 27.0164 135.596 27.2303 135.202 27.2303Z" fill="#000C3E"/>
<path d="M150.901 29.653C150.591 29.653 150.282 29.5199 150.068 29.2626C149.683 28.8057 149.744 28.1233 150.204 27.7388C150.285 27.6694 158.213 20.9408 158.017 13.9694C157.936 11.0114 156.357 8.36274 153.33 6.10158C152.85 5.74303 152.751 5.06353 153.11 4.58354C153.466 4.10644 154.154 4.01102 154.628 4.36378C158.216 7.04422 160.087 10.2567 160.185 13.9145C160.408 21.9413 151.953 29.1007 151.595 29.4014C151.392 29.572 151.144 29.653 150.901 29.653Z" fill="#000C3E"/>
<path d="M189.763 121.159C189.439 121.159 189.118 121.015 188.904 120.74C188.537 120.266 188.621 119.586 189.095 119.219C189.468 118.927 198.247 111.924 195.951 100.126C195.051 95.5086 193.4 90.3935 191.654 84.9835C188.606 75.5456 185.457 65.7838 185.402 56.3604C185.4 55.7618 185.882 55.2732 186.481 55.2703H186.487C187.082 55.2703 187.568 55.7532 187.571 56.3488C187.623 65.4368 190.72 75.0338 193.716 84.3184C195.485 89.792 197.156 94.965 198.079 99.7128C200.635 112.846 190.841 120.61 190.425 120.934C190.226 121.087 189.994 121.159 189.763 121.159Z" fill="#000C3E"/>
<path d="M193.376 71.7007C193.332 71.7007 193.289 71.6978 193.243 71.692C192.65 71.6197 192.228 71.079 192.3 70.4834C193.763 58.5617 191.488 48.8086 185.534 41.4988C175.943 29.713 159.924 28.2702 159.762 28.2615C159.163 28.2094 158.721 27.6861 158.77 27.0904C158.819 26.4919 159.34 26.0582 159.941 26.0986C160.632 26.1536 177.047 27.6369 187.217 40.1283C193.555 47.9122 195.99 58.2176 194.451 70.7494C194.385 71.2959 193.917 71.7007 193.376 71.7007Z" fill="#000C3E"/>
<path d="M149.344 113.848C148.21 113.848 146.976 113.814 145.862 113.773C145.067 113.741 144.445 113.068 144.474 112.27C144.506 111.472 145.209 110.922 145.975 110.882C148.389 110.977 151.356 110.992 151.94 110.844C152.698 110.578 153.499 110.968 153.768 111.72C154.039 112.469 153.626 113.308 152.877 113.577C152.316 113.782 150.931 113.848 149.344 113.848Z" fill="#DB5C5D"/>
<path d="M114.532 93.797C114.428 93.797 114.321 93.7825 114.217 93.7478C113.641 93.5744 113.32 92.97 113.494 92.3975C115.469 85.9176 110.75 81.6151 110.701 81.5717C110.255 81.1755 110.215 80.4874 110.614 80.0392C111.01 79.591 111.701 79.5563 112.144 79.9524C112.384 80.1635 117.944 85.2381 115.57 93.0279C115.428 93.4963 114.998 93.797 114.532 93.797Z" fill="#FFA874"/>
<path d="M178.833 96.9739C178.801 96.9739 178.772 96.9739 178.737 96.971C178.142 96.916 177.699 96.3927 177.751 95.7941C178.469 87.6661 182.502 83.3809 182.673 83.2016C183.086 82.7737 183.772 82.7621 184.202 83.1727C184.636 83.5833 184.651 84.2686 184.24 84.7023C184.202 84.7428 180.559 88.6608 179.914 95.985C179.862 96.5517 179.388 96.9739 178.833 96.9739Z" fill="#FFA874"/>
<path d="M118.608 86.819C118.608 86.819 128.031 94.6897 128.771 95.8868C129.511 97.0838 129.217 112.406 127.736 112.218C126.256 112.033 117.277 97.4366 116.294 97.4655C115.311 97.4944 115.748 99.0703 115.748 99.0703C115.748 99.0703 123.445 111.784 128.069 115.37C132.692 118.958 161.555 119.123 167.434 115.801C173.315 112.475 178.297 100.033 177.849 99.7758C177.398 99.5156 176.279 98.5007 176.091 98.9286C175.932 99.293 167.951 113.513 166.954 113.068C165.953 112.623 167.064 96.8352 166.954 95.3432C166.844 93.8482 178.511 82.5309 178.511 82.5309L179.352 81.1111L178.173 80.7873C178.173 80.7873 166.734 92.2059 163.868 92.1394C161.003 92.0729 130.96 94.2444 129.569 93.7413C128.178 93.2381 118.882 83.1641 117.723 83.5776C116.56 83.9882 118.284 85.9197 118.608 86.819Z" fill="#FFFCF6"/>
<path d="M114.842 145.31C114.842 145.31 139.464 174.746 158.452 166.869C177.438 158.993 195.227 137.642 185.682 134.808C176.137 131.978 99.9165 133.467 114.842 145.31Z" fill="#FFCEB0"/>
<path d="M222.95 127.87C222.95 127.87 219.614 101.887 218.495 100.204C217.376 98.5216 208.912 111.299 211.196 118.542C213.484 125.786 181.853 125.965 184.32 136.545C186.786 147.122 185.274 161.418 198.393 162.149C211.509 162.884 226.478 159.324 229.546 154.452C232.617 149.583 222.95 127.87 222.95 127.87Z" fill="#FFBF98"/>
<path d="M242.666 151.268C242.666 151.268 279.242 193.994 272.105 222.095C264.969 250.197 230.175 254.745 223.038 251.107C215.902 247.469 218.577 126.923 242.666 151.268Z" fill="#F5C108"/>
<path d="M73.4306 145.923C73.4306 145.923 29.0603 193.581 31.9403 236.121C34.3171 271.242 88.2236 265.898 94.8567 262.582C101.493 259.265 95.8196 123.728 73.4306 145.923Z" fill="#F5C108"/>
<path d="M225.487 134.047C225.487 134.047 270.025 222.143 257.791 237.225C245.557 252.307 223.81 254.031 215.132 241.522C210.063 234.221 217.142 169.709 209.659 161.8C202.175 153.892 223.113 129.898 225.487 134.047Z" fill="#FFBF98"/>
<path d="M156.962 224.869C156.962 224.869 187.245 236.293 192.088 245.922C196.932 255.551 178.961 243.808 174.731 242.062C170.503 240.318 185.745 252.457 186.207 255.264C186.667 258.069 169.248 246.989 169.248 246.989C169.248 246.989 181.349 259.79 180.158 262.458C178.967 265.13 165.128 254.142 165.128 254.142C165.128 254.142 172.308 265.512 169.954 267.125C167.6 268.739 151.972 249.883 139.087 250.655C126.202 251.43 77.4111 279.732 58.8505 251.297C40.287 222.862 55.9503 209.327 91.8947 209.723C127.839 210.122 146.981 220.682 156.962 224.869Z" fill="#FFBF98"/>
<path d="M73.3902 111.761C73.3902 111.761 126.466 182.628 139.743 188.488C153.024 194.351 169.672 193.031 171.128 199.829C172.584 206.631 143.255 195.126 147.934 205.618C152.612 216.114 170.846 228.094 170.932 238.66C171.021 249.23 141.917 215.973 141.917 215.973C141.917 215.973 169.339 246.4 160.259 247.119C151.175 247.839 127.688 218.091 127.688 218.091C127.688 218.091 153.961 257.115 145.251 253.55C136.546 249.986 55.8046 156.618 43.3535 146.738C30.9025 136.862 73.3902 111.761 73.3902 111.761Z" fill="#E27B5A"/>
<path d="M227.787 128.963C227.787 128.963 167.251 193.555 153.407 197.92C139.563 202.282 123.163 199.14 120.966 205.735C118.773 212.332 149.187 204.129 143.382 214.046C137.581 223.959 118.143 233.858 116.894 244.354C115.65 254.846 148.228 224.998 148.228 224.998C148.228 224.998 117.628 252.22 126.574 253.934C135.525 255.651 162.138 228.669 162.138 228.669C162.138 228.669 131.735 264.567 140.781 261.982C149.828 259.397 240.338 175.486 253.797 167.037C267.259 158.589 227.787 128.963 227.787 128.963Z" fill="#FFCEB0"/>
<path d="M176.25 173.813C176.25 173.813 194.869 209.07 211.985 212.821C229.099 216.572 266.071 183.105 274.138 166.528C282.208 149.954 242.877 99.7976 234.46 92.5836C222.301 91.0992 167.618 142.386 176.25 173.813Z" fill="#FB4C47"/>
<path d="M60.721 77.5544C60.721 77.5544 121.959 137.907 119.057 153.578C116.159 169.252 92.7756 188.027 73.917 194.175C55.0585 200.321 13.8298 175.564 13.8298 157.511C10.8234 126.851 26.4547 94.9884 60.721 77.5544Z" fill="#128E5A"/>
<defs>
<linearGradient id="paint0_linear" x1="11.2362" y1="233.747" x2="26.9514" y2="288.314" gradientUnits="userSpaceOnUse">
<stop stop-color="#FFD0D0"/>
<stop offset="1" stop-color="#FFF8F8"/>
</linearGradient>
<linearGradient id="paint1_linear" x1="304.772" y1="87.8231" x2="128.881" y2="47.2075" gradientUnits="userSpaceOnUse">
<stop stop-color="#FFF8F8"/>
<stop offset="1" stop-color="#FFD0D0"/>
</linearGradient>
<linearGradient id="paint2_linear" x1="267.458" y1="89.7556" x2="207.112" y2="63.9808" gradientUnits="userSpaceOnUse">
<stop stop-color="#FFD0D0"/>
<stop offset="1" stop-color="#FFF7F7"/>
</linearGradient>
<linearGradient id="paint3_linear" x1="253.838" y1="259.727" x2="11.2439" y2="119.241" gradientUnits="userSpaceOnUse">
<stop stop-color="#FFCFCF"/>
<stop offset="1" stop-color="#FFF8F8"/>
</linearGradient>
</defs>
</svg>
